<?xml version="1.0" standalone="no"?>
<!DOCTYPE svg PUBLIC "-//W3C//DTD SVG 20010904//EN"
 "http://www.w3.org/TR/2001/REC-SVG-20010904/DTD/svg10.dtd">
<svg version="1.0" xmlns="http://www.w3.org/2000/svg"
 width="400.000000pt" height="476.000000pt" viewBox="0 0 400.000000 476.000000"
 preserveAspectRatio="xMidYMid meet">
<metadata>
Created by potrace 1.15, written by Peter Selinger 2001-2017
</metadata>
<g transform="translate(0.000000,476.000000) scale(0.100000,-0.100000)"
fill="#fff" stroke="none">
<path d="M1876 4630 l-118 -120 71 -76 c39 -42 74 -87 77 -101 7 -25 -1 -91
-11 -101 -3 -4 -38 29 -77 71 l-70 78 -31 -42 -31 -43 91 -85 c50 -47 100
-102 112 -121 23 -38 27 -90 10 -122 -10 -19 -17 -15 -103 71 l-92 91 -34 -35
-34 -35 139 -140 139 -139 -13 -68 c-24 -125 -13 -113 -98 -113 l-74 0 3 -42
c3 -39 5 -43 33 -45 63 -5 72 -10 67 -42 -3 -26 1 -33 37 -55 32 -21 41 -32
41 -55 0 -26 -4 -29 -46 -35 -26 -3 -66 -6 -90 -6 l-44 0 0 -45 0 -45 90 0 90
0 0 -54 0 -55 -52 -11 -53 -12 3 -59 c4 -62 3 -61 71 -74 l34 -7 -7 -129 c-4
-71 -9 -136 -12 -144 -7 -18 -64 89 -64 121 0 16 8 28 24 35 l24 11 -23 34
c-13 19 -25 40 -28 47 -3 9 -13 7 -36 -6 -31 -18 -33 -18 -46 0 -8 10 -15 21
-15 25 0 4 -15 33 -33 65 -138 239 -140 242 -133 286 4 23 15 78 26 122 61
257 58 239 41 247 -9 4 -32 7 -52 7 l-36 1 -17 -79 c-9 -44 -25 -103 -35 -132
l-18 -54 -27 43 c-15 24 -30 50 -32 57 -3 8 11 84 31 170 21 86 36 158 33 160
-2 2 -22 7 -44 11 l-41 6 -22 -79 c-11 -44 -21 -85 -21 -91 0 -24 -31 -11 -50
21 -24 38 -25 81 -6 139 8 24 19 62 24 86 l10 42 -54 0 c-53 0 -53 0 -63 -37
-5 -21 -15 -57 -21 -80 l-11 -42 -51 20 c-62 24 -92 19 -113 -21 -18 -35 -19
-53 -2 -47 18 6 133 -29 171 -52 32 -20 62 -69 55 -89 -3 -9 -67 4 -165 33
-18 6 -22 2 -27 -22 -3 -15 -8 -38 -12 -50 -6 -19 -2 -23 37 -33 23 -6 87 -25
140 -42 84 -26 103 -36 138 -74 67 -73 65 -73 -132 -29 l-98 21 -6 -35 c-3
-20 -8 -43 -10 -52 -4 -13 16 -22 98 -44 176 -47 223 -64 261 -96 34 -28 122
-166 187 -292 l25 -49 -34 -28 -33 -28 28 -41 c33 -47 71 -63 86 -37 8 14 11
14 23 2 27 -26 75 -136 60 -136 -12 0 -255 164 -255 172 0 5 9 26 20 48 11 22
20 41 20 44 0 2 -20 15 -44 29 l-45 25 -15 -24 c-9 -13 -16 -29 -16 -37 0 -7
-5 -18 -12 -25 -13 -13 -58 -17 -58 -4 0 4 -14 15 -30 24 -17 10 -33 24 -36
32 -3 8 15 47 41 87 49 75 49 73 1 101 -17 9 -24 6 -49 -23 -15 -19 -40 -52
-55 -74 l-27 -41 -31 21 c-31 21 -31 21 -13 44 11 13 19 26 19 30 -1 3 -23 17
-50 30 l-49 24 29 34 c17 18 30 39 30 46 0 18 -28 55 -50 67 -17 9 -25 0 -67
-70 -28 -47 -54 -80 -64 -80 -67 0 -144 94 -174 214 -39 159 -56 237 -50 246
5 9 -82 -13 -92 -24 -3 -2 0 -29 7 -58 6 -29 15 -75 20 -103 5 -27 11 -58 15
-67 16 -40 -70 -8 -99 36 -17 27 -76 242 -76 278 0 19 -4 20 -42 14 -68 -11
-69 -16 -38 -110 25 -75 26 -106 2 -106 -39 0 -78 66 -118 196 l-19 61 -110
-29 c-60 -16 -123 -31 -138 -33 -16 -3 -41 -11 -57 -18 l-28 -12 38 -154 c21
-85 44 -159 49 -164 16 -16 76 -12 118 8 20 10 57 19 83 20 42 3 51 0 76 -26
17 -17 24 -32 18 -37 -8 -8 -126 -46 -165 -54 -14 -3 -14 -9 -5 -48 10 -41 14
-45 41 -44 17 1 72 18 122 38 116 45 177 48 222 10 17 -14 31 -30 31 -34 0 -5
-56 -27 -123 -49 l-124 -42 10 -48 9 -48 42 9 c22 5 88 26 146 46 162 56 269
49 321 -22 16 -21 15 -25 -28 -93 l-45 -72 33 -29 c20 -17 40 -27 51 -24 10 2
15 8 13 13 -3 4 4 27 15 50 19 36 23 39 38 27 38 -29 56 -35 81 -22 13 7 27
17 30 23 4 6 19 2 39 -11 19 -12 29 -24 24 -27 -8 -5 -92 -138 -92 -146 0 -5
80 -38 84 -34 2 2 20 32 40 66 20 34 40 65 45 68 8 4 111 -52 111 -61 0 -2
-11 -24 -25 -50 l-25 -48 47 -26 48 -26 34 47 34 48 51 -38 c28 -20 82 -57
119 -81 75 -48 74 -60 -6 -60 -62 0 -87 13 -80 41 8 28 -11 39 -68 39 l-46 0
-7 -40 -6 -40 -190 0 -191 0 -147 139 -147 140 -33 -32 c-18 -17 -31 -34 -30
-38 2 -4 43 -49 91 -100 94 -98 96 -109 26 -109 -50 0 -115 44 -167 114 -37
51 -103 116 -115 115 -7 0 -22 -13 -35 -29 -21 -27 -22 -31 -8 -59 9 -16 39
-49 67 -74 49 -43 50 -46 31 -56 -39 -21 -70 -12 -129 36 -32 26 -71 60 -86
76 l-28 30 -29 -28 c-17 -16 -30 -36 -30 -45 0 -9 25 -40 55 -69 30 -29 55
-57 55 -61 0 -4 -24 -30 -54 -57 l-53 -49 24 -42 25 -42 42 37 c120 108 149
126 195 117 17 -4 31 -9 31 -13 0 -3 -32 -38 -72 -78 l-71 -72 35 -39 36 -40
60 67 c33 36 75 83 92 103 42 50 110 82 155 74 19 -4 35 -10 35 -14 0 -4 -41
-48 -91 -98 l-92 -92 21 -29 c42 -60 45 -60 112 9 35 35 93 96 130 135 68 72
68 73 136 83 92 13 210 13 292 -1 l68 -11 -4 -36 c-4 -33 -3 -35 19 -29 13 4
42 7 64 7 39 0 40 1 40 32 0 29 4 33 39 41 27 7 50 6 77 -3 l39 -13 -63 -40
c-34 -22 -80 -51 -102 -65 -22 -14 -49 -34 -60 -44 -23 -20 -23 -20 -65 50
-11 17 -25 32 -32 32 -7 0 -30 -16 -51 -35 l-37 -35 26 -40 c15 -22 25 -42 23
-44 -2 -2 -28 -18 -56 -35 l-53 -30 -35 55 c-19 30 -35 58 -35 62 0 4 -5 13
-11 19 -9 9 -21 7 -50 -7 l-38 -20 45 -72 c24 -40 44 -76 44 -80 0 -5 -14 -17
-32 -28 l-32 -19 -19 29 c-18 29 -19 29 -45 13 -15 -9 -35 -23 -44 -31 -16
-14 -20 -11 -40 36 -13 28 -29 52 -36 52 -15 0 -72 -28 -72 -35 0 -3 18 -41
39 -84 l40 -78 -27 -26 c-72 -69 -133 -69 -341 -1 -74 25 -138 41 -143 36 -4
-4 -12 -29 -17 -55 -8 -46 -8 -47 18 -53 86 -18 193 -48 213 -60 15 -9 -10
-41 -46 -58 -51 -24 -84 -20 -203 24 -59 22 -115 40 -124 40 -15 0 -29 -24
-43 -75 -5 -19 2 -23 71 -39 43 -10 86 -22 97 -28 17 -9 16 -12 -10 -39 -34
-36 -84 -38 -170 -9 -66 23 -116 32 -108 19 3 -5 -4 -39 -15 -76 -32 -110 -70
-257 -67 -260 5 -5 188 -53 246 -64 30 -6 61 -14 69 -19 11 -6 20 7 37 56 12
34 31 83 43 107 23 47 77 105 88 93 7 -7 -5 -71 -29 -153 -13 -47 -13 -50 22
-57 14 -3 34 -8 45 -11 23 -7 30 12 61 160 9 44 25 96 35 116 18 36 72 89 90
89 15 0 10 -59 -15 -165 l-23 -100 21 -6 c76 -21 73 -22 84 24 6 23 20 83 32
132 30 132 38 156 76 208 27 37 94 87 118 87 2 0 26 -35 52 -77 26 -43 49 -80
50 -81 2 -2 21 7 43 20 l40 24 -34 52 -34 52 50 25 49 25 -22 30 -22 30 26 27
c35 34 51 26 87 -44 49 -97 51 -98 92 -78 45 23 44 22 27 42 -16 19 -80 135
-75 138 39 30 92 65 98 65 5 0 23 -22 41 -49 l33 -49 26 22 c14 11 35 26 45
32 18 11 18 12 -3 52 -13 22 -23 42 -23 45 0 10 226 167 241 167 14 0 11 -16
-13 -57 -48 -85 -47 -84 -69 -70 -18 11 -24 7 -60 -33 l-39 -45 34 -28 34 -29
-86 -146 c-140 -241 -108 -210 -278 -266 -227 -74 -236 -80 -198 -134 12 -17
24 -23 48 -21 17 2 36 6 41 10 20 13 144 59 159 59 30 0 19 -57 -20 -99 -37
-42 -62 -52 -219 -86 -44 -10 -83 -21 -87 -24 -7 -6 12 -84 22 -95 3 -2 49 6
103 19 l98 23 -7 -22 c-13 -44 -56 -76 -141 -103 -117 -37 -119 -39 -85 -90
25 -38 29 -40 47 -27 26 19 89 36 108 28 9 -3 19 -20 22 -37 16 -80 55 -118
103 -102 20 6 20 7 -4 93 -27 97 -29 133 -12 165 14 27 41 48 49 39 4 -4 17
-47 30 -96 l23 -88 35 6 c20 3 41 6 47 6 8 0 6 21 -6 68 -29 110 -60 246 -60
260 0 7 14 34 32 59 l31 47 17 -53 c10 -28 28 -88 40 -131 24 -85 26 -86 87
-74 l30 6 -24 101 c-13 56 -33 147 -45 203 l-22 101 86 154 c48 85 92 166 99
181 l12 28 32 -20 c18 -11 35 -20 38 -20 4 0 18 20 32 45 l27 45 -29 24 -28
24 34 69 c28 57 35 65 42 48 14 -37 10 -199 -7 -248 -15 -44 -18 -47 -50 -47
l-34 0 0 -64 0 -65 31 9 c20 6 39 6 50 -1 21 -11 21 -9 24 -66 5 -67 -9 -77
-104 -77 l-81 0 0 -48 0 -48 90 0 c89 0 90 0 90 -25 0 -18 -5 -25 -19 -25 -25
0 -36 -15 -55 -82 -18 -63 -23 -67 -79 -53 -26 7 -27 6 -27 -39 l0 -46 84 0
c95 0 96 -1 96 -81 0 -75 -30 -122 -156 -244 -63 -60 -114 -115 -114 -121 0
-6 18 -25 39 -42 l39 -31 86 92 c94 99 106 102 106 23 0 -53 -43 -118 -130
-196 -95 -83 -98 -91 -59 -135 l32 -36 36 43 c85 100 100 114 111 98 5 -8 10
-31 10 -51 0 -43 -32 -94 -102 -162 l-49 -48 117 -124 c64 -69 120 -125 124
-125 4 0 60 57 125 126 l118 125 -55 57 c-30 31 -65 70 -76 86 -23 30 -29 89
-12 116 10 15 18 7 121 -113 l24 -29 34 47 34 47 -95 92 c-115 111 -128 129
-128 181 0 78 10 76 115 -20 l96 -88 32 31 33 32 -138 138 -138 139 0 76 c0
109 -2 107 91 107 l79 0 0 39 c0 41 -13 51 -68 51 -19 0 -22 5 -20 32 3 28 -2
35 -39 56 -32 17 -43 30 -43 47 0 32 6 34 94 42 l76 6 0 48 0 49 -85 0 -85 0
0 48 c0 43 3 50 25 60 14 7 37 12 50 12 24 0 25 2 25 69 l0 69 -52 6 -53 7 3
147 c3 147 3 147 22 122 11 -14 31 -47 46 -74 l27 -49 -28 -22 c-15 -13 -23
-25 -17 -29 5 -3 17 -22 26 -41 l17 -36 33 20 32 20 42 -84 c23 -46 68 -130
100 -187 l58 -103 -47 -190 c-26 -104 -46 -190 -46 -190 103 -28 117 -27 117
5 0 21 13 77 40 175 l16 59 32 -46 c18 -26 32 -53 32 -60 0 -14 -31 -150 -60
-260 l-17 -66 44 -7 c25 -4 46 -5 48 -3 2 2 16 45 32 96 l29 93 27 -27 c38
-37 42 -66 22 -132 -9 -31 -23 -78 -30 -104 l-13 -48 54 0 c61 0 58 -4 84 95
11 41 21 59 31 58 20 -3 81 -19 101 -28 13 -5 22 3 38 35 12 23 20 43 18 45
-2 2 -23 6 -48 10 -97 14 -172 62 -186 118 -6 28 -6 28 32 21 22 -3 63 -15 93
-25 30 -10 55 -18 56 -16 1 1 9 24 18 50 12 36 13 49 4 52 -7 2 -64 18 -127
35 -63 17 -129 40 -147 51 -36 23 -87 83 -81 97 1 5 61 -4 131 -20 71 -17 131
-28 134 -25 2 3 9 25 14 48 7 30 7 44 -1 49 -7 4 -73 24 -148 45 -159 43 -174
50 -224 102 -34 36 -188 299 -188 321 0 6 14 20 30 32 17 12 30 26 30 31 0 15
-79 89 -95 89 -8 0 -15 -7 -15 -15 0 -32 -31 -13 -60 38 -28 49 -38 87 -24 87
4 0 43 -24 88 -54 44 -29 102 -66 129 -81 26 -15 47 -30 47 -33 0 -4 -11 -25
-25 -47 -27 -44 -30 -55 -15 -55 6 0 27 -11 48 -24 l38 -24 23 43 c13 24 30
46 38 50 16 6 102 -53 103 -70 0 -5 -20 -41 -45 -79 l-45 -70 37 -17 c42 -19
36 -23 102 74 35 52 45 55 81 28 23 -19 24 -20 7 -39 -9 -10 -17 -21 -17 -25
0 -3 20 -18 45 -32 l44 -26 -31 -50 c-17 -28 -29 -51 -27 -53 7 -6 68 -36 73
-36 2 0 26 34 52 75 26 41 49 75 51 75 17 0 86 -46 108 -72 40 -48 59 -97 94
-253 17 -76 32 -140 34 -141 7 -7 97 21 97 30 0 6 -11 52 -25 101 -28 100 -32
155 -12 155 19 0 72 -52 92 -89 14 -28 44 -143 62 -239 7 -42 14 -45 63 -32
47 13 48 19 20 108 -22 70 -26 112 -10 112 6 0 27 -17 48 -38 29 -29 44 -58
66 -130 17 -50 30 -92 30 -92 18 0 326 76 332 82 1 2 -16 76 -38 166 -49 192
-45 189 -170 148 -43 -14 -87 -26 -97 -26 -18 0 -71 49 -71 66 0 6 40 23 89
38 70 22 88 31 85 44 -13 68 -15 72 -37 72 -13 0 -64 -16 -113 -36 -121 -50
-198 -53 -243 -10 -17 17 -28 33 -24 37 5 4 60 23 123 44 63 20 116 38 118 40
7 6 -21 95 -30 95 -5 0 -57 -16 -114 -36 -208 -71 -257 -75 -335 -32 -62 34
-64 47 -19 131 l41 75 -31 26 c-35 29 -60 34 -60 11 0 -13 -25 -71 -36 -84 -1
-2 -15 9 -29 23 -33 33 -40 33 -82 -4 -40 -35 -44 -36 -68 -10 -17 19 -17 22
29 96 52 84 51 98 -9 109 -28 5 -33 1 -74 -64 l-44 -69 -49 30 c-52 32 -55 38
-34 71 27 43 28 74 4 91 -35 25 -63 19 -97 -19 -17 -20 -31 -40 -31 -46 0 -5
-26 8 -57 29 -32 21 -86 54 -120 73 -35 18 -63 39 -63 45 0 7 14 17 31 23 38
13 75 -4 104 -48 24 -37 55 -52 91 -42 22 6 30 15 38 52 l11 44 186 3 187 2
108 -103 c60 -57 128 -121 152 -142 l43 -39 29 34 c34 40 39 30 -78 151 l-74
76 31 13 c63 26 154 -36 276 -187 l39 -50 34 41 34 40 -71 69 c-39 37 -69 72
-66 76 10 17 67 21 99 7 18 -7 62 -41 98 -75 36 -33 68 -61 71 -61 13 0 47 45
47 62 0 11 -22 41 -50 69 -27 27 -50 55 -50 61 0 6 23 33 51 59 l52 48 -27 41
c-14 22 -28 40 -31 40 -2 0 -24 -21 -47 -47 -86 -93 -146 -121 -200 -92 -19
10 -16 15 50 83 l71 71 -31 34 -30 34 -97 -101 c-101 -106 -139 -132 -193
-132 -64 0 -60 12 33 109 49 51 89 97 89 100 0 4 -13 22 -30 41 l-30 35 -137
-140 -138 -140 -138 -3 c-130 -4 -332 7 -294 15 11 3 17 14 17 34 0 28 -1 29
-54 29 -61 0 -86 -16 -86 -57 0 -24 -1 -25 -52 -18 -29 4 -57 10 -61 12 -7 4
125 97 221 157 7 4 19 -9 32 -33 31 -61 48 -66 94 -24 l39 36 -24 43 c-13 24
-21 45 -19 47 3 2 26 16 52 30 l47 28 47 -71 c26 -38 51 -70 56 -70 16 0 68
30 68 40 0 5 -6 15 -13 22 -7 7 -28 37 -47 67 -33 52 -33 54 -14 68 45 34 53
34 70 8 20 -31 27 -31 69 0 l33 26 21 -36 c11 -20 21 -40 21 -45 0 -18 20 -20
55 -6 19 8 35 18 35 22 0 3 -19 42 -42 86 l-43 79 32 29 c67 60 138 61 318 3
61 -19 124 -39 142 -43 32 -8 32 -7 43 43 6 27 8 52 6 54 -2 3 -44 15 -93 28
-131 35 -146 40 -150 51 -5 15 31 44 73 59 43 15 96 4 203 -39 35 -14 79 -28
96 -32 35 -6 36 -5 50 62 6 30 4 32 -32 39 -32 6 -69 17 -142 41 -20 6 14 43
57 61 30 12 40 11 113 -12 117 -37 113 -38 138 53 11 42 28 104 37 137 35 133
36 123 -1 135 -19 6 -44 13 -57 15 -13 3 -73 18 -133 33 l-110 29 -19 -61
c-42 -133 -80 -196 -118 -196 -25 0 -24 49 3 135 11 37 19 68 17 70 -2 2 -23
5 -47 6 l-44 4 -24 -105 c-13 -58 -31 -124 -39 -148 -17 -47 -61 -96 -94 -105
-20 -5 -21 -3 -14 51 4 31 10 66 14 78 5 11 11 46 15 77 7 56 7 56 -21 62 -16
4 -39 11 -52 16 -15 6 -21 6 -17 0 5 -9 -2 -45 -50 -243 -19 -80 -63 -156
-109 -190 -63 -46 -78 -40 -125 52 l-42 80 -39 -26 c-22 -15 -40 -29 -40 -33
0 -3 14 -26 31 -51 l30 -44 -38 -23 c-21 -13 -42 -24 -46 -26 -5 -1 0 -17 10
-35 l18 -33 -28 -25 c-15 -13 -32 -24 -36 -24 -4 0 -27 36 -51 80 -24 44 -47
80 -52 80 -15 0 -68 -30 -68 -39 0 -5 8 -19 18 -32 11 -13 31 -45 46 -70 l26
-47 -51 -33 c-58 -37 -71 -34 -104 23 l-20 35 -42 -26 c-59 -37 -59 -36 -29
-82 15 -22 26 -42 24 -43 -37 -26 -243 -159 -254 -163 -35 -13 -5 77 42 124
24 24 26 24 50 8 14 -9 27 -15 28 -13 52 72 69 102 59 105 -7 2 -23 13 -37 24
l-25 20 68 112 c38 62 82 139 99 173 17 33 36 65 44 71 7 7 54 21 103 33 139
33 230 61 255 80 22 17 22 18 6 52 -10 20 -27 38 -38 42 -13 3 -55 -9 -102
-28 -129 -53 -126 -53 -126 -14 0 65 52 107 165 132 142 33 175 45 175 66 0
15 -14 58 -26 78 -1 1 -35 -9 -77 -23 -94 -31 -117 -32 -117 -4 0 28 69 96
106 104 16 4 55 17 86 29 l57 22 -26 43 c-15 26 -28 39 -32 32 -4 -6 -16 -13
-27 -15 -10 -2 -30 -9 -44 -14 -40 -15 -68 1 -76 45 -9 53 -28 80 -60 86 -61
11 -66 -8 -29 -115 14 -39 25 -79 25 -89 0 -29 -21 -67 -45 -83 -22 -14 -23
-13 -46 71 -13 46 -27 89 -30 95 -4 6 -24 7 -50 3 l-45 -7 38 -151 c21 -84 38
-159 38 -169 0 -18 -49 -98 -61 -98 -4 0 -15 26 -24 58 -58 202 -58 202 -85
195 -14 -3 -35 -11 -46 -19 l-21 -13 46 -185 47 -185 -99 -183 c-55 -101 -101
-185 -103 -187 -2 -2 -15 4 -28 13 -36 23 -42 21 -70 -29 l-25 -45 25 -16 c13
-9 24 -22 24 -28 0 -6 -17 -40 -37 -74 -26 -44 -40 -59 -47 -52 -13 13 -15
231 -3 273 7 25 11 27 57 27 l50 0 0 60 0 59 -57 3 -58 3 -3 48 c-4 55 -1 57
116 77 l72 12 0 39 0 39 -96 0 -95 0 3 37 c3 34 6 38 41 46 35 8 37 11 37 46
0 33 4 39 35 54 20 9 45 17 55 17 17 0 20 7 20 45 l0 45 -83 0 -83 0 -12 45
c-7 25 -12 64 -12 88 0 41 2 44 145 176 80 73 145 137 145 141 0 4 -18 21 -39
38 l-40 32 -49 -52 c-26 -29 -67 -73 -90 -98 -35 -37 -44 -42 -52 -30 -44 65
-14 134 102 229 40 33 84 77 97 96 l24 36 -34 35 -34 34 -63 -75 c-34 -41 -67
-75 -72 -75 -13 0 -24 65 -16 96 4 14 38 59 76 99 39 41 70 77 70 81 0 8 -232
244 -240 244 -3 0 -59 -54 -124 -120z"/>
</g>
</svg>
